<mxfile host="app.diagrams.net" modified="2022-02-11T06:12:46.051Z" agent="5.0 (Macintosh; Intel Mac OS X 10_15_7) AppleWebKit/537.36 (KHTML, like Gecko) Chrome/96.0.4664.110 Safari/537.36" etag="pWEHwntoTJcYvb7iyyh1" version="16.2.7" type="github">
  <diagram id="5RSw2us5nB8iM983i-XA" name="第 1 页">
    <mxGraphModel dx="1455" dy="943" grid="1" gridSize="10" guides="1" tooltips="1" connect="1" arrows="1" fold="1" page="1" pageScale="1" pageWidth="827" pageHeight="1169" math="0" shadow="0">
      <root>
        <mxCell id="0" />
        <mxCell id="1" parent="0" />
        <mxCell id="NbpeEciZDlfbmzeo30sF-120" value="" style="rounded=0;whiteSpace=wrap;html=1;sketch=0;shadow=0;fillColor=#B3B3B3;gradientColor=none;textOpacity=0;opacity=20;" vertex="1" parent="1">
          <mxGeometry x="860" y="890" width="660" height="90" as="geometry" />
        </mxCell>
        <mxCell id="NbpeEciZDlfbmzeo30sF-69" value="" style="rounded=0;whiteSpace=wrap;html=1;" vertex="1" parent="1">
          <mxGeometry x="1340" y="120" width="20" height="510" as="geometry" />
        </mxCell>
        <mxCell id="NbpeEciZDlfbmzeo30sF-1" value="" style="rounded=0;whiteSpace=wrap;html=1;" vertex="1" parent="1">
          <mxGeometry x="140" y="120" width="20" height="510" as="geometry" />
        </mxCell>
        <mxCell id="NbpeEciZDlfbmzeo30sF-2" value="" style="rounded=0;whiteSpace=wrap;html=1;" vertex="1" parent="1">
          <mxGeometry x="310" y="120" width="20" height="510" as="geometry" />
        </mxCell>
        <mxCell id="NbpeEciZDlfbmzeo30sF-3" value="" style="rounded=0;whiteSpace=wrap;html=1;" vertex="1" parent="1">
          <mxGeometry x="480" y="120" width="20" height="510" as="geometry" />
        </mxCell>
        <mxCell id="NbpeEciZDlfbmzeo30sF-4" value="" style="rounded=0;whiteSpace=wrap;html=1;" vertex="1" parent="1">
          <mxGeometry x="660" y="120" width="20" height="510" as="geometry" />
        </mxCell>
        <mxCell id="NbpeEciZDlfbmzeo30sF-5" value="POD" style="text;html=1;align=center;verticalAlign=middle;resizable=0;points=[];autosize=1;strokeColor=none;fillColor=none;" vertex="1" parent="1">
          <mxGeometry x="130" y="100" width="40" height="20" as="geometry" />
        </mxCell>
        <mxCell id="NbpeEciZDlfbmzeo30sF-6" value="sidecar" style="text;html=1;align=center;verticalAlign=middle;resizable=0;points=[];autosize=1;strokeColor=none;fillColor=none;" vertex="1" parent="1">
          <mxGeometry x="295" y="100" width="50" height="20" as="geometry" />
        </mxCell>
        <mxCell id="NbpeEciZDlfbmzeo30sF-7" value="istiod" style="text;html=1;align=center;verticalAlign=middle;resizable=0;points=[];autosize=1;strokeColor=none;fillColor=none;" vertex="1" parent="1">
          <mxGeometry x="470" y="100" width="40" height="20" as="geometry" />
        </mxCell>
        <mxCell id="NbpeEciZDlfbmzeo30sF-8" value="business" style="text;html=1;align=center;verticalAlign=middle;resizable=0;points=[];autosize=1;strokeColor=none;fillColor=none;" vertex="1" parent="1">
          <mxGeometry x="640" y="100" width="60" height="20" as="geometry" />
        </mxCell>
        <mxCell id="NbpeEciZDlfbmzeo30sF-9" value="start" style="endArrow=classic;html=1;rounded=0;exitX=1.1;exitY=0.039;exitDx=0;exitDy=0;exitPerimeter=0;entryX=-0.2;entryY=0.083;entryDx=0;entryDy=0;entryPerimeter=0;" edge="1" parent="1" source="NbpeEciZDlfbmzeo30sF-1" target="NbpeEciZDlfbmzeo30sF-2">
          <mxGeometry width="50" height="50" relative="1" as="geometry">
            <mxPoint x="390" y="340" as="sourcePoint" />
            <mxPoint x="440" y="290" as="targetPoint" />
          </mxGeometry>
        </mxCell>
        <mxCell id="NbpeEciZDlfbmzeo30sF-10" value="" style="endArrow=classic;html=1;rounded=0;exitX=1.2;exitY=0.137;exitDx=0;exitDy=0;exitPerimeter=0;entryX=1;entryY=0.225;entryDx=0;entryDy=0;entryPerimeter=0;" edge="1" parent="1" source="NbpeEciZDlfbmzeo30sF-2" target="NbpeEciZDlfbmzeo30sF-2">
          <mxGeometry width="50" height="50" relative="1" as="geometry">
            <mxPoint x="390" y="340" as="sourcePoint" />
            <mxPoint x="440" y="290" as="targetPoint" />
            <Array as="points">
              <mxPoint x="400" y="183" />
              <mxPoint x="400" y="235" />
            </Array>
          </mxGeometry>
        </mxCell>
        <mxCell id="NbpeEciZDlfbmzeo30sF-11" value="start envoy" style="edgeLabel;html=1;align=center;verticalAlign=middle;resizable=0;points=[];" vertex="1" connectable="0" parent="NbpeEciZDlfbmzeo30sF-10">
          <mxGeometry x="-0.6489" y="-1" relative="1" as="geometry">
            <mxPoint as="offset" />
          </mxGeometry>
        </mxCell>
        <mxCell id="NbpeEciZDlfbmzeo30sF-12" value="xDS request" style="endArrow=classic;html=1;rounded=0;exitX=0.95;exitY=0.307;exitDx=0;exitDy=0;exitPerimeter=0;entryX=-0.15;entryY=0.353;entryDx=0;entryDy=0;entryPerimeter=0;" edge="1" parent="1" source="NbpeEciZDlfbmzeo30sF-2" target="NbpeEciZDlfbmzeo30sF-3">
          <mxGeometry width="50" height="50" relative="1" as="geometry">
            <mxPoint x="390" y="340" as="sourcePoint" />
            <mxPoint x="470" y="300" as="targetPoint" />
          </mxGeometry>
        </mxCell>
        <mxCell id="NbpeEciZDlfbmzeo30sF-13" value="fault response" style="endArrow=classic;html=1;rounded=0;exitX=-0.2;exitY=0.378;exitDx=0;exitDy=0;exitPerimeter=0;entryX=1.1;entryY=0.418;entryDx=0;entryDy=0;entryPerimeter=0;" edge="1" parent="1" source="NbpeEciZDlfbmzeo30sF-3" target="NbpeEciZDlfbmzeo30sF-2">
          <mxGeometry width="50" height="50" relative="1" as="geometry">
            <mxPoint x="390" y="340" as="sourcePoint" />
            <mxPoint x="440" y="290" as="targetPoint" />
          </mxGeometry>
        </mxCell>
        <mxCell id="NbpeEciZDlfbmzeo30sF-14" value="health check cycle post start" style="endArrow=classic;html=1;rounded=0;" edge="1" parent="1">
          <mxGeometry x="-0.0345" y="10" width="50" height="50" relative="1" as="geometry">
            <mxPoint x="331" y="357" as="sourcePoint" />
            <mxPoint x="331" y="404" as="targetPoint" />
            <Array as="points">
              <mxPoint x="380" y="357" />
              <mxPoint x="380" y="404" />
            </Array>
            <mxPoint as="offset" />
          </mxGeometry>
        </mxCell>
        <mxCell id="NbpeEciZDlfbmzeo30sF-16" value="pending in health check ready&amp;nbsp;" style="endArrow=none;dashed=1;html=1;dashPattern=1 3;strokeWidth=2;rounded=0;" edge="1" parent="1">
          <mxGeometry width="50" height="50" relative="1" as="geometry">
            <mxPoint x="80" y="430" as="sourcePoint" />
            <mxPoint x="720" y="430" as="targetPoint" />
          </mxGeometry>
        </mxCell>
        <mxCell id="NbpeEciZDlfbmzeo30sF-19" value="health check is ready&amp;nbsp;" style="endArrow=none;dashed=1;html=1;dashPattern=1 3;strokeWidth=2;rounded=0;" edge="1" parent="1">
          <mxGeometry width="50" height="50" relative="1" as="geometry">
            <mxPoint x="80" y="490" as="sourcePoint" />
            <mxPoint x="720" y="490" as="targetPoint" />
          </mxGeometry>
        </mxCell>
        <mxCell id="NbpeEciZDlfbmzeo30sF-20" value="start business" style="endArrow=classic;html=1;rounded=0;entryX=0;entryY=0.835;entryDx=0;entryDy=0;entryPerimeter=0;exitX=1;exitY=0.75;exitDx=0;exitDy=0;" edge="1" parent="1" source="NbpeEciZDlfbmzeo30sF-1" target="NbpeEciZDlfbmzeo30sF-4">
          <mxGeometry width="50" height="50" relative="1" as="geometry">
            <mxPoint x="160" y="520" as="sourcePoint" />
            <mxPoint x="210" y="470" as="targetPoint" />
          </mxGeometry>
        </mxCell>
        <mxCell id="NbpeEciZDlfbmzeo30sF-21" value="business start success" style="endArrow=classic;html=1;rounded=0;entryX=1;entryY=0.902;entryDx=0;entryDy=0;entryPerimeter=0;exitX=-0.1;exitY=0.845;exitDx=0;exitDy=0;exitPerimeter=0;" edge="1" parent="1" source="NbpeEciZDlfbmzeo30sF-4" target="NbpeEciZDlfbmzeo30sF-1">
          <mxGeometry width="50" height="50" relative="1" as="geometry">
            <mxPoint x="650" y="540" as="sourcePoint" />
            <mxPoint x="440" y="290" as="targetPoint" />
          </mxGeometry>
        </mxCell>
        <mxCell id="NbpeEciZDlfbmzeo30sF-22" value="" style="endArrow=none;dashed=1;html=1;dashPattern=1 3;strokeWidth=2;rounded=0;" edge="1" parent="1">
          <mxGeometry width="50" height="50" relative="1" as="geometry">
            <mxPoint x="80" y="590" as="sourcePoint" />
            <mxPoint x="710" y="590" as="targetPoint" />
          </mxGeometry>
        </mxCell>
        <mxCell id="NbpeEciZDlfbmzeo30sF-23" value="pod ready" style="edgeLabel;html=1;align=center;verticalAlign=middle;resizable=0;points=[];" vertex="1" connectable="0" parent="NbpeEciZDlfbmzeo30sF-22">
          <mxGeometry x="-0.0127" y="1" relative="1" as="geometry">
            <mxPoint as="offset" />
          </mxGeometry>
        </mxCell>
        <mxCell id="NbpeEciZDlfbmzeo30sF-24" value="" style="rounded=0;whiteSpace=wrap;html=1;sketch=0;shadow=0;fillColor=#B3B3B3;gradientColor=none;textOpacity=0;opacity=40;" vertex="1" parent="1">
          <mxGeometry x="60" y="420" width="670" height="60" as="geometry" />
        </mxCell>
        <mxCell id="NbpeEciZDlfbmzeo30sF-26" value="" style="rounded=0;whiteSpace=wrap;html=1;" vertex="1" parent="1">
          <mxGeometry x="930" y="120" width="20" height="510" as="geometry" />
        </mxCell>
        <mxCell id="NbpeEciZDlfbmzeo30sF-27" value="" style="rounded=0;whiteSpace=wrap;html=1;" vertex="1" parent="1">
          <mxGeometry x="1070" y="120" width="20" height="510" as="geometry" />
        </mxCell>
        <mxCell id="NbpeEciZDlfbmzeo30sF-28" value="" style="rounded=0;whiteSpace=wrap;html=1;" vertex="1" parent="1">
          <mxGeometry x="1221" y="120" width="20" height="510" as="geometry" />
        </mxCell>
        <mxCell id="NbpeEciZDlfbmzeo30sF-29" value="" style="rounded=0;whiteSpace=wrap;html=1;" vertex="1" parent="1">
          <mxGeometry x="1450" y="120" width="20" height="510" as="geometry" />
        </mxCell>
        <mxCell id="NbpeEciZDlfbmzeo30sF-30" value="POD" style="text;html=1;align=center;verticalAlign=middle;resizable=0;points=[];autosize=1;strokeColor=none;fillColor=none;" vertex="1" parent="1">
          <mxGeometry x="920" y="100" width="40" height="20" as="geometry" />
        </mxCell>
        <mxCell id="NbpeEciZDlfbmzeo30sF-31" value="sidecar" style="text;html=1;align=center;verticalAlign=middle;resizable=0;points=[];autosize=1;strokeColor=none;fillColor=none;" vertex="1" parent="1">
          <mxGeometry x="1085" y="100" width="50" height="20" as="geometry" />
        </mxCell>
        <mxCell id="NbpeEciZDlfbmzeo30sF-32" value="istiod" style="text;html=1;align=center;verticalAlign=middle;resizable=0;points=[];autosize=1;strokeColor=none;fillColor=none;" vertex="1" parent="1">
          <mxGeometry x="1211" y="100" width="40" height="20" as="geometry" />
        </mxCell>
        <mxCell id="NbpeEciZDlfbmzeo30sF-33" value="business" style="text;html=1;align=center;verticalAlign=middle;resizable=0;points=[];autosize=1;strokeColor=none;fillColor=none;" vertex="1" parent="1">
          <mxGeometry x="1430" y="100" width="60" height="20" as="geometry" />
        </mxCell>
        <mxCell id="NbpeEciZDlfbmzeo30sF-34" value="start" style="endArrow=classic;html=1;rounded=0;exitX=1.1;exitY=0.039;exitDx=0;exitDy=0;exitPerimeter=0;entryX=-0.2;entryY=0.067;entryDx=0;entryDy=0;entryPerimeter=0;" edge="1" parent="1" source="NbpeEciZDlfbmzeo30sF-26" target="NbpeEciZDlfbmzeo30sF-27">
          <mxGeometry width="50" height="50" relative="1" as="geometry">
            <mxPoint x="1180" y="340" as="sourcePoint" />
            <mxPoint x="1230" y="290" as="targetPoint" />
          </mxGeometry>
        </mxCell>
        <mxCell id="NbpeEciZDlfbmzeo30sF-35" value="" style="endArrow=classic;html=1;rounded=0;entryX=0.95;entryY=0.176;entryDx=0;entryDy=0;entryPerimeter=0;" edge="1" parent="1" target="NbpeEciZDlfbmzeo30sF-27">
          <mxGeometry width="50" height="50" relative="1" as="geometry">
            <mxPoint x="1090" y="183" as="sourcePoint" />
            <mxPoint x="1230" y="290" as="targetPoint" />
            <Array as="points">
              <mxPoint x="1160" y="183" />
              <mxPoint x="1160" y="210" />
            </Array>
          </mxGeometry>
        </mxCell>
        <mxCell id="NbpeEciZDlfbmzeo30sF-36" value="start envoy" style="edgeLabel;html=1;align=center;verticalAlign=middle;resizable=0;points=[];" vertex="1" connectable="0" parent="NbpeEciZDlfbmzeo30sF-35">
          <mxGeometry x="-0.6489" y="-1" relative="1" as="geometry">
            <mxPoint as="offset" />
          </mxGeometry>
        </mxCell>
        <mxCell id="NbpeEciZDlfbmzeo30sF-39" value="health check cycle post start" style="endArrow=classic;html=1;rounded=0;exitX=1;exitY=0.473;exitDx=0;exitDy=0;exitPerimeter=0;entryX=1.05;entryY=0.541;entryDx=0;entryDy=0;entryPerimeter=0;" edge="1" parent="1" source="NbpeEciZDlfbmzeo30sF-27" target="NbpeEciZDlfbmzeo30sF-27">
          <mxGeometry x="-0.1449" y="30" width="50" height="50" relative="1" as="geometry">
            <mxPoint x="1121" y="270" as="sourcePoint" />
            <mxPoint x="1121" y="310" as="targetPoint" />
            <Array as="points">
              <mxPoint x="1150" y="361" />
              <mxPoint x="1150" y="396" />
            </Array>
            <mxPoint as="offset" />
          </mxGeometry>
        </mxCell>
        <mxCell id="NbpeEciZDlfbmzeo30sF-40" value="pending in health check ready&amp;nbsp;" style="endArrow=none;dashed=1;html=1;dashPattern=1 3;strokeWidth=2;rounded=0;" edge="1" parent="1">
          <mxGeometry width="50" height="50" relative="1" as="geometry">
            <mxPoint x="890" y="420" as="sourcePoint" />
            <mxPoint x="1530" y="420" as="targetPoint" />
          </mxGeometry>
        </mxCell>
        <mxCell id="NbpeEciZDlfbmzeo30sF-41" value="health check is ready&amp;nbsp;" style="endArrow=none;dashed=1;html=1;dashPattern=1 3;strokeWidth=2;rounded=0;" edge="1" parent="1">
          <mxGeometry width="50" height="50" relative="1" as="geometry">
            <mxPoint x="890" y="500" as="sourcePoint" />
            <mxPoint x="1530" y="500" as="targetPoint" />
          </mxGeometry>
        </mxCell>
        <mxCell id="NbpeEciZDlfbmzeo30sF-42" value="start business" style="endArrow=classic;html=1;rounded=0;entryX=-0.2;entryY=0.855;entryDx=0;entryDy=0;entryPerimeter=0;exitX=1.25;exitY=0.79;exitDx=0;exitDy=0;exitPerimeter=0;" edge="1" parent="1" source="NbpeEciZDlfbmzeo30sF-26" target="NbpeEciZDlfbmzeo30sF-29">
          <mxGeometry width="50" height="50" relative="1" as="geometry">
            <mxPoint x="950" y="520" as="sourcePoint" />
            <mxPoint x="1000" y="470" as="targetPoint" />
          </mxGeometry>
        </mxCell>
        <mxCell id="NbpeEciZDlfbmzeo30sF-43" value="business start success" style="endArrow=classic;html=1;rounded=0;exitX=-0.25;exitY=0.869;exitDx=0;exitDy=0;exitPerimeter=0;" edge="1" parent="1" source="NbpeEciZDlfbmzeo30sF-29">
          <mxGeometry width="50" height="50" relative="1" as="geometry">
            <mxPoint x="1440" y="540" as="sourcePoint" />
            <mxPoint x="950" y="590" as="targetPoint" />
          </mxGeometry>
        </mxCell>
        <mxCell id="NbpeEciZDlfbmzeo30sF-44" value="" style="endArrow=none;dashed=1;html=1;dashPattern=1 3;strokeWidth=2;rounded=0;" edge="1" parent="1">
          <mxGeometry width="50" height="50" relative="1" as="geometry">
            <mxPoint x="870" y="600" as="sourcePoint" />
            <mxPoint x="1520" y="600" as="targetPoint" />
          </mxGeometry>
        </mxCell>
        <mxCell id="NbpeEciZDlfbmzeo30sF-45" value="pod ready" style="edgeLabel;html=1;align=center;verticalAlign=middle;resizable=0;points=[];" vertex="1" connectable="0" parent="NbpeEciZDlfbmzeo30sF-44">
          <mxGeometry x="-0.0127" y="1" relative="1" as="geometry">
            <mxPoint as="offset" />
          </mxGeometry>
        </mxCell>
        <mxCell id="NbpeEciZDlfbmzeo30sF-46" value="" style="rounded=0;whiteSpace=wrap;html=1;sketch=0;shadow=0;fillColor=#B3B3B3;gradientColor=none;textOpacity=0;opacity=40;" vertex="1" parent="1">
          <mxGeometry x="860" y="430" width="670" height="60" as="geometry" />
        </mxCell>
        <mxCell id="NbpeEciZDlfbmzeo30sF-47" value="now" style="text;html=1;align=center;verticalAlign=middle;resizable=0;points=[];autosize=1;strokeColor=none;fillColor=none;" vertex="1" parent="1">
          <mxGeometry x="374" y="660" width="40" height="20" as="geometry" />
        </mxCell>
        <mxCell id="NbpeEciZDlfbmzeo30sF-48" value="raer start up" style="text;html=1;align=center;verticalAlign=middle;resizable=0;points=[];autosize=1;strokeColor=none;fillColor=none;" vertex="1" parent="1">
          <mxGeometry x="1180" y="650" width="80" height="20" as="geometry" />
        </mxCell>
        <mxCell id="NbpeEciZDlfbmzeo30sF-49" value="" style="rounded=0;whiteSpace=wrap;html=1;" vertex="1" parent="1">
          <mxGeometry x="1724" y="140" width="20" height="510" as="geometry" />
        </mxCell>
        <mxCell id="NbpeEciZDlfbmzeo30sF-50" value="" style="rounded=0;whiteSpace=wrap;html=1;" vertex="1" parent="1">
          <mxGeometry x="1894" y="140" width="20" height="510" as="geometry" />
        </mxCell>
        <mxCell id="NbpeEciZDlfbmzeo30sF-51" value="" style="rounded=0;whiteSpace=wrap;html=1;" vertex="1" parent="1">
          <mxGeometry x="2064" y="140" width="20" height="510" as="geometry" />
        </mxCell>
        <mxCell id="NbpeEciZDlfbmzeo30sF-52" value="" style="rounded=0;whiteSpace=wrap;html=1;" vertex="1" parent="1">
          <mxGeometry x="2244" y="140" width="20" height="510" as="geometry" />
        </mxCell>
        <mxCell id="NbpeEciZDlfbmzeo30sF-53" value="agent" style="text;html=1;align=center;verticalAlign=middle;resizable=0;points=[];autosize=1;strokeColor=none;fillColor=none;" vertex="1" parent="1">
          <mxGeometry x="1709" y="120" width="50" height="20" as="geometry" />
        </mxCell>
        <mxCell id="NbpeEciZDlfbmzeo30sF-54" value="envoy" style="text;html=1;align=center;verticalAlign=middle;resizable=0;points=[];autosize=1;strokeColor=none;fillColor=none;" vertex="1" parent="1">
          <mxGeometry x="1879" y="120" width="50" height="20" as="geometry" />
        </mxCell>
        <mxCell id="NbpeEciZDlfbmzeo30sF-55" value="istiod" style="text;html=1;align=center;verticalAlign=middle;resizable=0;points=[];autosize=1;strokeColor=none;fillColor=none;" vertex="1" parent="1">
          <mxGeometry x="2054" y="120" width="40" height="20" as="geometry" />
        </mxCell>
        <mxCell id="NbpeEciZDlfbmzeo30sF-56" value="apiserver" style="text;html=1;align=center;verticalAlign=middle;resizable=0;points=[];autosize=1;strokeColor=none;fillColor=none;" vertex="1" parent="1">
          <mxGeometry x="2224" y="120" width="60" height="20" as="geometry" />
        </mxCell>
        <mxCell id="NbpeEciZDlfbmzeo30sF-57" value="watch injack option" style="endArrow=classic;html=1;rounded=0;exitX=1.1;exitY=0.039;exitDx=0;exitDy=0;exitPerimeter=0;" edge="1" parent="1" source="NbpeEciZDlfbmzeo30sF-49">
          <mxGeometry width="50" height="50" relative="1" as="geometry">
            <mxPoint x="1974" y="360" as="sourcePoint" />
            <mxPoint x="2240" y="190" as="targetPoint" />
          </mxGeometry>
        </mxCell>
        <mxCell id="NbpeEciZDlfbmzeo30sF-68" value="raer runtime" style="text;html=1;align=center;verticalAlign=middle;resizable=0;points=[];autosize=1;strokeColor=none;fillColor=none;" vertex="1" parent="1">
          <mxGeometry x="1974" y="670" width="80" height="20" as="geometry" />
        </mxCell>
        <mxCell id="NbpeEciZDlfbmzeo30sF-70" value="get sidecarconfig status" style="endArrow=classic;html=1;rounded=0;exitX=1.15;exitY=0.204;exitDx=0;exitDy=0;exitPerimeter=0;entryX=0;entryY=0.227;entryDx=0;entryDy=0;entryPerimeter=0;" edge="1" parent="1" source="NbpeEciZDlfbmzeo30sF-27" target="NbpeEciZDlfbmzeo30sF-69">
          <mxGeometry width="50" height="50" relative="1" as="geometry">
            <mxPoint x="1200" y="400" as="sourcePoint" />
            <mxPoint x="1250" y="350" as="targetPoint" />
          </mxGeometry>
        </mxCell>
        <mxCell id="NbpeEciZDlfbmzeo30sF-71" value="" style="endArrow=classic;html=1;rounded=0;entryX=1.05;entryY=0.275;entryDx=0;entryDy=0;entryPerimeter=0;exitX=0;exitY=0.25;exitDx=0;exitDy=0;" edge="1" parent="1" source="NbpeEciZDlfbmzeo30sF-69" target="NbpeEciZDlfbmzeo30sF-27">
          <mxGeometry width="50" height="50" relative="1" as="geometry">
            <mxPoint x="1330" y="250" as="sourcePoint" />
            <mxPoint x="1250" y="350" as="targetPoint" />
          </mxGeometry>
        </mxCell>
        <mxCell id="NbpeEciZDlfbmzeo30sF-73" value="apiserver" style="text;html=1;align=center;verticalAlign=middle;resizable=0;points=[];autosize=1;strokeColor=none;fillColor=none;" vertex="1" parent="1">
          <mxGeometry x="1320" y="100" width="60" height="20" as="geometry" />
        </mxCell>
        <mxCell id="NbpeEciZDlfbmzeo30sF-74" value="" style="rounded=0;whiteSpace=wrap;html=1;sketch=0;shadow=0;fillColor=#B3B3B3;gradientColor=none;textOpacity=0;opacity=20;" vertex="1" parent="1">
          <mxGeometry x="860" y="280" width="670" height="60" as="geometry" />
        </mxCell>
        <mxCell id="NbpeEciZDlfbmzeo30sF-76" value="get xDS request" style="endArrow=classic;html=1;rounded=0;exitX=1.05;exitY=0.324;exitDx=0;exitDy=0;exitPerimeter=0;" edge="1" parent="1" source="NbpeEciZDlfbmzeo30sF-27">
          <mxGeometry width="50" height="50" relative="1" as="geometry">
            <mxPoint x="1150" y="400" as="sourcePoint" />
            <mxPoint x="1220" y="300" as="targetPoint" />
          </mxGeometry>
        </mxCell>
        <mxCell id="NbpeEciZDlfbmzeo30sF-77" value="" style="endArrow=classic;html=1;rounded=0;entryX=1.25;entryY=0.412;entryDx=0;entryDy=0;entryPerimeter=0;" edge="1" parent="1" target="NbpeEciZDlfbmzeo30sF-27">
          <mxGeometry width="50" height="50" relative="1" as="geometry">
            <mxPoint x="1220" y="310" as="sourcePoint" />
            <mxPoint x="1200" y="350" as="targetPoint" />
          </mxGeometry>
        </mxCell>
        <mxCell id="NbpeEciZDlfbmzeo30sF-78" value="if hijack option open" style="endArrow=none;dashed=1;html=1;dashPattern=1 3;strokeWidth=2;rounded=0;" edge="1" parent="1">
          <mxGeometry width="50" height="50" relative="1" as="geometry">
            <mxPoint x="880" y="270" as="sourcePoint" />
            <mxPoint x="1520" y="270" as="targetPoint" />
          </mxGeometry>
        </mxCell>
        <mxCell id="NbpeEciZDlfbmzeo30sF-79" value="" style="endArrow=classic;html=1;rounded=0;entryX=0.974;entryY=0.183;entryDx=0;entryDy=0;entryPerimeter=0;" edge="1" parent="1" target="NbpeEciZDlfbmzeo30sF-49">
          <mxGeometry width="50" height="50" relative="1" as="geometry">
            <mxPoint x="2240" y="200" as="sourcePoint" />
            <mxPoint x="1750" y="230" as="targetPoint" />
          </mxGeometry>
        </mxCell>
        <mxCell id="NbpeEciZDlfbmzeo30sF-87" value="injack open" style="edgeLabel;html=1;align=center;verticalAlign=middle;resizable=0;points=[];" vertex="1" connectable="0" parent="NbpeEciZDlfbmzeo30sF-79">
          <mxGeometry x="0.0527" y="1" relative="1" as="geometry">
            <mxPoint as="offset" />
          </mxGeometry>
        </mxCell>
        <mxCell id="NbpeEciZDlfbmzeo30sF-80" value="open xDS req" style="endArrow=classic;html=1;rounded=0;exitX=1;exitY=0.25;exitDx=0;exitDy=0;" edge="1" parent="1" source="NbpeEciZDlfbmzeo30sF-49">
          <mxGeometry width="50" height="50" relative="1" as="geometry">
            <mxPoint x="1780" y="450" as="sourcePoint" />
            <mxPoint x="1890" y="280" as="targetPoint" />
          </mxGeometry>
        </mxCell>
        <mxCell id="NbpeEciZDlfbmzeo30sF-81" value="" style="endArrow=classic;html=1;rounded=0;exitX=1.091;exitY=0.328;exitDx=0;exitDy=0;exitPerimeter=0;" edge="1" parent="1" source="NbpeEciZDlfbmzeo30sF-49">
          <mxGeometry width="50" height="50" relative="1" as="geometry">
            <mxPoint x="1890" y="330" as="sourcePoint" />
            <mxPoint x="1746" y="350" as="targetPoint" />
            <Array as="points">
              <mxPoint x="1810" y="307" />
              <mxPoint x="1810" y="330" />
              <mxPoint x="1810" y="350" />
              <mxPoint x="1780" y="350" />
            </Array>
          </mxGeometry>
        </mxCell>
        <mxCell id="NbpeEciZDlfbmzeo30sF-84" value="health check xDS ready" style="edgeLabel;html=1;align=center;verticalAlign=middle;resizable=0;points=[];" vertex="1" connectable="0" parent="NbpeEciZDlfbmzeo30sF-81">
          <mxGeometry x="0.0275" y="-2" relative="1" as="geometry">
            <mxPoint as="offset" />
          </mxGeometry>
        </mxCell>
        <mxCell id="NbpeEciZDlfbmzeo30sF-82" value="" style="endArrow=classic;html=1;rounded=0;exitX=1.121;exitY=0.293;exitDx=0;exitDy=0;exitPerimeter=0;" edge="1" parent="1" source="NbpeEciZDlfbmzeo30sF-50">
          <mxGeometry width="50" height="50" relative="1" as="geometry">
            <mxPoint x="1780" y="450" as="sourcePoint" />
            <mxPoint x="2060" y="300" as="targetPoint" />
          </mxGeometry>
        </mxCell>
        <mxCell id="NbpeEciZDlfbmzeo30sF-83" value="xDS req" style="edgeLabel;html=1;align=center;verticalAlign=middle;resizable=0;points=[];" vertex="1" connectable="0" parent="NbpeEciZDlfbmzeo30sF-82">
          <mxGeometry x="-0.0546" y="5" relative="1" as="geometry">
            <mxPoint as="offset" />
          </mxGeometry>
        </mxCell>
        <mxCell id="NbpeEciZDlfbmzeo30sF-85" value="" style="endArrow=classic;html=1;rounded=0;entryX=1.025;entryY=0.807;entryDx=0;entryDy=0;exitX=0.963;exitY=0.726;exitDx=0;exitDy=0;exitPerimeter=0;entryPerimeter=0;" edge="1" parent="1" source="NbpeEciZDlfbmzeo30sF-49" target="NbpeEciZDlfbmzeo30sF-49">
          <mxGeometry width="50" height="50" relative="1" as="geometry">
            <mxPoint x="1743" y="430" as="sourcePoint" />
            <mxPoint x="1820" y="490" as="targetPoint" />
            <Array as="points">
              <mxPoint x="1810" y="510" />
              <mxPoint x="1810" y="552" />
              <mxPoint x="1790" y="552" />
            </Array>
          </mxGeometry>
        </mxCell>
        <mxCell id="NbpeEciZDlfbmzeo30sF-86" value="injack open" style="edgeLabel;html=1;align=center;verticalAlign=middle;resizable=0;points=[];" vertex="1" connectable="0" parent="NbpeEciZDlfbmzeo30sF-85">
          <mxGeometry x="-0.0767" y="-2" relative="1" as="geometry">
            <mxPoint as="offset" />
          </mxGeometry>
        </mxCell>
        <mxCell id="NbpeEciZDlfbmzeo30sF-88" value="sync injack status" style="endArrow=classic;html=1;rounded=0;exitX=0.963;exitY=0.841;exitDx=0;exitDy=0;exitPerimeter=0;" edge="1" parent="1" source="NbpeEciZDlfbmzeo30sF-49">
          <mxGeometry width="50" height="50" relative="1" as="geometry">
            <mxPoint x="1780" y="500" as="sourcePoint" />
            <mxPoint x="2240" y="590" as="targetPoint" />
          </mxGeometry>
        </mxCell>
        <mxCell id="NbpeEciZDlfbmzeo30sF-89" value="success" style="endArrow=classic;html=1;rounded=0;entryX=0.963;entryY=0.956;entryDx=0;entryDy=0;entryPerimeter=0;" edge="1" parent="1" target="NbpeEciZDlfbmzeo30sF-49">
          <mxGeometry width="50" height="50" relative="1" as="geometry">
            <mxPoint x="2240" y="610" as="sourcePoint" />
            <mxPoint x="1750" y="620" as="targetPoint" />
          </mxGeometry>
        </mxCell>
        <mxCell id="NbpeEciZDlfbmzeo30sF-90" value="pending health check ready" style="endArrow=none;dashed=1;html=1;dashPattern=1 3;strokeWidth=2;rounded=0;" edge="1" parent="1">
          <mxGeometry width="50" height="50" relative="1" as="geometry">
            <mxPoint x="1680" y="360" as="sourcePoint" />
            <mxPoint x="2320" y="360" as="targetPoint" />
          </mxGeometry>
        </mxCell>
        <mxCell id="NbpeEciZDlfbmzeo30sF-91" value="" style="rounded=0;whiteSpace=wrap;html=1;sketch=0;shadow=0;fillColor=#B3B3B3;gradientColor=none;textOpacity=0;opacity=40;" vertex="1" parent="1">
          <mxGeometry x="1654" y="370" width="670" height="60" as="geometry" />
        </mxCell>
        <mxCell id="NbpeEciZDlfbmzeo30sF-92" value="sync injack failed" style="endArrow=classic;html=1;rounded=0;exitX=1.025;exitY=0.606;exitDx=0;exitDy=0;exitPerimeter=0;" edge="1" parent="1" source="NbpeEciZDlfbmzeo30sF-49">
          <mxGeometry width="50" height="50" relative="1" as="geometry">
            <mxPoint x="1753.2599999999998" y="578.9100000000001" as="sourcePoint" />
            <mxPoint x="2240" y="470" as="targetPoint" />
          </mxGeometry>
        </mxCell>
        <mxCell id="NbpeEciZDlfbmzeo30sF-94" value="if health check failed" style="endArrow=none;dashed=1;html=1;dashPattern=1 3;strokeWidth=2;rounded=0;" edge="1" parent="1">
          <mxGeometry width="50" height="50" relative="1" as="geometry">
            <mxPoint x="1680" y="440" as="sourcePoint" />
            <mxPoint x="2320" y="440" as="targetPoint" />
          </mxGeometry>
        </mxCell>
        <mxCell id="NbpeEciZDlfbmzeo30sF-95" value="" style="rounded=0;whiteSpace=wrap;html=1;sketch=0;shadow=0;fillColor=#B3B3B3;gradientColor=none;textOpacity=0;opacity=20;" vertex="1" parent="1">
          <mxGeometry x="1654" y="450" width="670" height="60" as="geometry" />
        </mxCell>
        <mxCell id="NbpeEciZDlfbmzeo30sF-96" value="" style="rounded=0;whiteSpace=wrap;html=1;" vertex="1" parent="1">
          <mxGeometry x="1340" y="740" width="20" height="510" as="geometry" />
        </mxCell>
        <mxCell id="NbpeEciZDlfbmzeo30sF-97" value="" style="rounded=0;whiteSpace=wrap;html=1;" vertex="1" parent="1">
          <mxGeometry x="930" y="740" width="20" height="510" as="geometry" />
        </mxCell>
        <mxCell id="NbpeEciZDlfbmzeo30sF-98" value="" style="rounded=0;whiteSpace=wrap;html=1;" vertex="1" parent="1">
          <mxGeometry x="1070" y="740" width="20" height="510" as="geometry" />
        </mxCell>
        <mxCell id="NbpeEciZDlfbmzeo30sF-99" value="" style="rounded=0;whiteSpace=wrap;html=1;" vertex="1" parent="1">
          <mxGeometry x="1221" y="740" width="20" height="510" as="geometry" />
        </mxCell>
        <mxCell id="NbpeEciZDlfbmzeo30sF-100" value="" style="rounded=0;whiteSpace=wrap;html=1;" vertex="1" parent="1">
          <mxGeometry x="1450" y="740" width="20" height="510" as="geometry" />
        </mxCell>
        <mxCell id="NbpeEciZDlfbmzeo30sF-101" value="POD" style="text;html=1;align=center;verticalAlign=middle;resizable=0;points=[];autosize=1;strokeColor=none;fillColor=none;" vertex="1" parent="1">
          <mxGeometry x="920" y="720" width="40" height="20" as="geometry" />
        </mxCell>
        <mxCell id="NbpeEciZDlfbmzeo30sF-102" value="sidecar" style="text;html=1;align=center;verticalAlign=middle;resizable=0;points=[];autosize=1;strokeColor=none;fillColor=none;" vertex="1" parent="1">
          <mxGeometry x="1085" y="720" width="50" height="20" as="geometry" />
        </mxCell>
        <mxCell id="NbpeEciZDlfbmzeo30sF-103" value="istiod" style="text;html=1;align=center;verticalAlign=middle;resizable=0;points=[];autosize=1;strokeColor=none;fillColor=none;" vertex="1" parent="1">
          <mxGeometry x="1211" y="720" width="40" height="20" as="geometry" />
        </mxCell>
        <mxCell id="NbpeEciZDlfbmzeo30sF-104" value="business" style="text;html=1;align=center;verticalAlign=middle;resizable=0;points=[];autosize=1;strokeColor=none;fillColor=none;" vertex="1" parent="1">
          <mxGeometry x="1430" y="720" width="60" height="20" as="geometry" />
        </mxCell>
        <mxCell id="NbpeEciZDlfbmzeo30sF-105" value="start" style="endArrow=classic;html=1;rounded=0;exitX=1.1;exitY=0.039;exitDx=0;exitDy=0;exitPerimeter=0;entryX=-0.2;entryY=0.067;entryDx=0;entryDy=0;entryPerimeter=0;" edge="1" parent="1" source="NbpeEciZDlfbmzeo30sF-97" target="NbpeEciZDlfbmzeo30sF-98">
          <mxGeometry width="50" height="50" relative="1" as="geometry">
            <mxPoint x="1180" y="960" as="sourcePoint" />
            <mxPoint x="1230" y="910" as="targetPoint" />
          </mxGeometry>
        </mxCell>
        <mxCell id="NbpeEciZDlfbmzeo30sF-106" value="" style="endArrow=classic;html=1;rounded=0;entryX=0.95;entryY=0.176;entryDx=0;entryDy=0;entryPerimeter=0;" edge="1" parent="1" target="NbpeEciZDlfbmzeo30sF-98">
          <mxGeometry width="50" height="50" relative="1" as="geometry">
            <mxPoint x="1090" y="802.9999999999999" as="sourcePoint" />
            <mxPoint x="1230" y="910" as="targetPoint" />
            <Array as="points">
              <mxPoint x="1160" y="803" />
              <mxPoint x="1160" y="830" />
            </Array>
          </mxGeometry>
        </mxCell>
        <mxCell id="NbpeEciZDlfbmzeo30sF-107" value="just start agent" style="edgeLabel;html=1;align=center;verticalAlign=middle;resizable=0;points=[];" vertex="1" connectable="0" parent="NbpeEciZDlfbmzeo30sF-106">
          <mxGeometry x="-0.6489" y="-1" relative="1" as="geometry">
            <mxPoint as="offset" />
          </mxGeometry>
        </mxCell>
        <mxCell id="NbpeEciZDlfbmzeo30sF-108" value="health check cycle post start" style="endArrow=classic;html=1;rounded=0;exitX=1.016;exitY=0.53;exitDx=0;exitDy=0;exitPerimeter=0;entryX=0.963;entryY=0.588;entryDx=0;entryDy=0;entryPerimeter=0;" edge="1" parent="1" source="NbpeEciZDlfbmzeo30sF-98" target="NbpeEciZDlfbmzeo30sF-98">
          <mxGeometry x="-0.1449" y="30" width="50" height="50" relative="1" as="geometry">
            <mxPoint x="1121" y="890" as="sourcePoint" />
            <mxPoint x="1121" y="930" as="targetPoint" />
            <Array as="points">
              <mxPoint x="1150" y="1010" />
              <mxPoint x="1150" y="1040" />
              <mxPoint x="1120" y="1040" />
            </Array>
            <mxPoint as="offset" />
          </mxGeometry>
        </mxCell>
        <mxCell id="NbpeEciZDlfbmzeo30sF-109" value="pending in health check ready&amp;nbsp;" style="endArrow=none;dashed=1;html=1;dashPattern=1 3;strokeWidth=2;rounded=0;" edge="1" parent="1">
          <mxGeometry width="50" height="50" relative="1" as="geometry">
            <mxPoint x="890" y="1060" as="sourcePoint" />
            <mxPoint x="1530" y="1060" as="targetPoint" />
          </mxGeometry>
        </mxCell>
        <mxCell id="NbpeEciZDlfbmzeo30sF-110" value="health check is ready&amp;nbsp;" style="endArrow=none;dashed=1;html=1;dashPattern=1 3;strokeWidth=2;rounded=0;" edge="1" parent="1">
          <mxGeometry width="50" height="50" relative="1" as="geometry">
            <mxPoint x="890" y="1120" as="sourcePoint" />
            <mxPoint x="1530" y="1120" as="targetPoint" />
          </mxGeometry>
        </mxCell>
        <mxCell id="NbpeEciZDlfbmzeo30sF-111" value="start business" style="endArrow=classic;html=1;rounded=0;entryX=-0.2;entryY=0.855;entryDx=0;entryDy=0;entryPerimeter=0;exitX=1.25;exitY=0.79;exitDx=0;exitDy=0;exitPerimeter=0;" edge="1" parent="1" source="NbpeEciZDlfbmzeo30sF-97" target="NbpeEciZDlfbmzeo30sF-100">
          <mxGeometry width="50" height="50" relative="1" as="geometry">
            <mxPoint x="950" y="1140" as="sourcePoint" />
            <mxPoint x="1000" y="1090" as="targetPoint" />
          </mxGeometry>
        </mxCell>
        <mxCell id="NbpeEciZDlfbmzeo30sF-112" value="business start success" style="endArrow=classic;html=1;rounded=0;exitX=-0.25;exitY=0.869;exitDx=0;exitDy=0;exitPerimeter=0;" edge="1" parent="1" source="NbpeEciZDlfbmzeo30sF-100">
          <mxGeometry width="50" height="50" relative="1" as="geometry">
            <mxPoint x="1440" y="1160" as="sourcePoint" />
            <mxPoint x="950" y="1210" as="targetPoint" />
          </mxGeometry>
        </mxCell>
        <mxCell id="NbpeEciZDlfbmzeo30sF-113" value="" style="endArrow=none;dashed=1;html=1;dashPattern=1 3;strokeWidth=2;rounded=0;" edge="1" parent="1">
          <mxGeometry width="50" height="50" relative="1" as="geometry">
            <mxPoint x="870" y="1220" as="sourcePoint" />
            <mxPoint x="1520" y="1220" as="targetPoint" />
          </mxGeometry>
        </mxCell>
        <mxCell id="NbpeEciZDlfbmzeo30sF-114" value="pod ready" style="edgeLabel;html=1;align=center;verticalAlign=middle;resizable=0;points=[];" vertex="1" connectable="0" parent="NbpeEciZDlfbmzeo30sF-113">
          <mxGeometry x="-0.0127" y="1" relative="1" as="geometry">
            <mxPoint as="offset" />
          </mxGeometry>
        </mxCell>
        <mxCell id="NbpeEciZDlfbmzeo30sF-115" value="" style="rounded=0;whiteSpace=wrap;html=1;sketch=0;shadow=0;fillColor=#B3B3B3;gradientColor=none;textOpacity=0;opacity=40;" vertex="1" parent="1">
          <mxGeometry x="860" y="1080" width="670" height="30" as="geometry" />
        </mxCell>
        <mxCell id="NbpeEciZDlfbmzeo30sF-116" value="raer start up" style="text;html=1;align=center;verticalAlign=middle;resizable=0;points=[];autosize=1;strokeColor=none;fillColor=none;" vertex="1" parent="1">
          <mxGeometry x="1180" y="1270" width="80" height="20" as="geometry" />
        </mxCell>
        <mxCell id="NbpeEciZDlfbmzeo30sF-117" value="get sidecarconfig status" style="endArrow=classic;html=1;rounded=0;exitX=1.15;exitY=0.204;exitDx=0;exitDy=0;exitPerimeter=0;entryX=0;entryY=0.227;entryDx=0;entryDy=0;entryPerimeter=0;" edge="1" parent="1" source="NbpeEciZDlfbmzeo30sF-98" target="NbpeEciZDlfbmzeo30sF-96">
          <mxGeometry width="50" height="50" relative="1" as="geometry">
            <mxPoint x="1200" y="1020" as="sourcePoint" />
            <mxPoint x="1250" y="970" as="targetPoint" />
          </mxGeometry>
        </mxCell>
        <mxCell id="NbpeEciZDlfbmzeo30sF-118" value="" style="endArrow=classic;html=1;rounded=0;entryX=1.05;entryY=0.275;entryDx=0;entryDy=0;entryPerimeter=0;exitX=0;exitY=0.25;exitDx=0;exitDy=0;" edge="1" parent="1" source="NbpeEciZDlfbmzeo30sF-96" target="NbpeEciZDlfbmzeo30sF-98">
          <mxGeometry width="50" height="50" relative="1" as="geometry">
            <mxPoint x="1330" y="870" as="sourcePoint" />
            <mxPoint x="1250" y="970" as="targetPoint" />
          </mxGeometry>
        </mxCell>
        <mxCell id="NbpeEciZDlfbmzeo30sF-119" value="apiserver" style="text;html=1;align=center;verticalAlign=middle;resizable=0;points=[];autosize=1;strokeColor=none;fillColor=none;" vertex="1" parent="1">
          <mxGeometry x="1320" y="720" width="60" height="20" as="geometry" />
        </mxCell>
        <mxCell id="NbpeEciZDlfbmzeo30sF-123" value="if hijack option open" style="endArrow=none;dashed=1;html=1;dashPattern=1 3;strokeWidth=2;rounded=0;" edge="1" parent="1">
          <mxGeometry width="50" height="50" relative="1" as="geometry">
            <mxPoint x="880" y="890" as="sourcePoint" />
            <mxPoint x="1520" y="890" as="targetPoint" />
          </mxGeometry>
        </mxCell>
        <mxCell id="NbpeEciZDlfbmzeo30sF-124" value="start envoy" style="endArrow=classic;html=1;rounded=0;exitX=1.174;exitY=0.342;exitDx=0;exitDy=0;exitPerimeter=0;entryX=1.068;entryY=0.427;entryDx=0;entryDy=0;entryPerimeter=0;" edge="1" parent="1" source="NbpeEciZDlfbmzeo30sF-98" target="NbpeEciZDlfbmzeo30sF-98">
          <mxGeometry width="50" height="50" relative="1" as="geometry">
            <mxPoint x="1290" y="1100" as="sourcePoint" />
            <mxPoint x="1340" y="1050" as="targetPoint" />
            <Array as="points">
              <mxPoint x="1170" y="914" />
              <mxPoint x="1170" y="940" />
              <mxPoint x="1170" y="958" />
            </Array>
          </mxGeometry>
        </mxCell>
        <mxCell id="NbpeEciZDlfbmzeo30sF-125" value="" style="rounded=0;whiteSpace=wrap;html=1;" vertex="1" parent="1">
          <mxGeometry x="1724" y="740" width="20" height="510" as="geometry" />
        </mxCell>
        <mxCell id="NbpeEciZDlfbmzeo30sF-126" value="" style="rounded=0;whiteSpace=wrap;html=1;" vertex="1" parent="1">
          <mxGeometry x="1894" y="740" width="20" height="510" as="geometry" />
        </mxCell>
        <mxCell id="NbpeEciZDlfbmzeo30sF-127" value="" style="rounded=0;whiteSpace=wrap;html=1;" vertex="1" parent="1">
          <mxGeometry x="2064" y="740" width="20" height="510" as="geometry" />
        </mxCell>
        <mxCell id="NbpeEciZDlfbmzeo30sF-128" value="" style="rounded=0;whiteSpace=wrap;html=1;" vertex="1" parent="1">
          <mxGeometry x="2244" y="740" width="20" height="510" as="geometry" />
        </mxCell>
        <mxCell id="NbpeEciZDlfbmzeo30sF-129" value="agent" style="text;html=1;align=center;verticalAlign=middle;resizable=0;points=[];autosize=1;strokeColor=none;fillColor=none;" vertex="1" parent="1">
          <mxGeometry x="1709" y="720" width="50" height="20" as="geometry" />
        </mxCell>
        <mxCell id="NbpeEciZDlfbmzeo30sF-130" value="envoy" style="text;html=1;align=center;verticalAlign=middle;resizable=0;points=[];autosize=1;strokeColor=none;fillColor=none;" vertex="1" parent="1">
          <mxGeometry x="1879" y="720" width="50" height="20" as="geometry" />
        </mxCell>
        <mxCell id="NbpeEciZDlfbmzeo30sF-131" value="istiod" style="text;html=1;align=center;verticalAlign=middle;resizable=0;points=[];autosize=1;strokeColor=none;fillColor=none;" vertex="1" parent="1">
          <mxGeometry x="2054" y="720" width="40" height="20" as="geometry" />
        </mxCell>
        <mxCell id="NbpeEciZDlfbmzeo30sF-132" value="apiserver" style="text;html=1;align=center;verticalAlign=middle;resizable=0;points=[];autosize=1;strokeColor=none;fillColor=none;" vertex="1" parent="1">
          <mxGeometry x="2224" y="720" width="60" height="20" as="geometry" />
        </mxCell>
        <mxCell id="NbpeEciZDlfbmzeo30sF-133" value="watch injack option" style="endArrow=classic;html=1;rounded=0;exitX=1.1;exitY=0.039;exitDx=0;exitDy=0;exitPerimeter=0;" edge="1" parent="1" source="NbpeEciZDlfbmzeo30sF-125">
          <mxGeometry width="50" height="50" relative="1" as="geometry">
            <mxPoint x="1974" y="960" as="sourcePoint" />
            <mxPoint x="2240" y="790" as="targetPoint" />
          </mxGeometry>
        </mxCell>
        <mxCell id="NbpeEciZDlfbmzeo30sF-134" value="raer runtime" style="text;html=1;align=center;verticalAlign=middle;resizable=0;points=[];autosize=1;strokeColor=none;fillColor=none;" vertex="1" parent="1">
          <mxGeometry x="1974" y="1270" width="80" height="20" as="geometry" />
        </mxCell>
        <mxCell id="NbpeEciZDlfbmzeo30sF-135" value="" style="endArrow=classic;html=1;rounded=0;entryX=0.974;entryY=0.183;entryDx=0;entryDy=0;entryPerimeter=0;" edge="1" parent="1" target="NbpeEciZDlfbmzeo30sF-125">
          <mxGeometry width="50" height="50" relative="1" as="geometry">
            <mxPoint x="2240" y="800" as="sourcePoint" />
            <mxPoint x="1750" y="830" as="targetPoint" />
          </mxGeometry>
        </mxCell>
        <mxCell id="NbpeEciZDlfbmzeo30sF-136" value="injack open" style="edgeLabel;html=1;align=center;verticalAlign=middle;resizable=0;points=[];" vertex="1" connectable="0" parent="NbpeEciZDlfbmzeo30sF-135">
          <mxGeometry x="0.0527" y="1" relative="1" as="geometry">
            <mxPoint as="offset" />
          </mxGeometry>
        </mxCell>
        <mxCell id="NbpeEciZDlfbmzeo30sF-138" value="" style="endArrow=classic;html=1;rounded=0;exitX=1.091;exitY=0.328;exitDx=0;exitDy=0;exitPerimeter=0;" edge="1" parent="1" source="NbpeEciZDlfbmzeo30sF-125">
          <mxGeometry width="50" height="50" relative="1" as="geometry">
            <mxPoint x="1890" y="930" as="sourcePoint" />
            <mxPoint x="1746" y="950" as="targetPoint" />
            <Array as="points">
              <mxPoint x="1810" y="907" />
              <mxPoint x="1810" y="930" />
              <mxPoint x="1810" y="950" />
              <mxPoint x="1780" y="950" />
            </Array>
          </mxGeometry>
        </mxCell>
        <mxCell id="NbpeEciZDlfbmzeo30sF-139" value="health check xDS ready" style="edgeLabel;html=1;align=center;verticalAlign=middle;resizable=0;points=[];" vertex="1" connectable="0" parent="NbpeEciZDlfbmzeo30sF-138">
          <mxGeometry x="0.0275" y="-2" relative="1" as="geometry">
            <mxPoint as="offset" />
          </mxGeometry>
        </mxCell>
        <mxCell id="NbpeEciZDlfbmzeo30sF-142" value="" style="endArrow=classic;html=1;rounded=0;entryX=1.025;entryY=0.807;entryDx=0;entryDy=0;exitX=0.963;exitY=0.726;exitDx=0;exitDy=0;exitPerimeter=0;entryPerimeter=0;" edge="1" parent="1" source="NbpeEciZDlfbmzeo30sF-125" target="NbpeEciZDlfbmzeo30sF-125">
          <mxGeometry width="50" height="50" relative="1" as="geometry">
            <mxPoint x="1743" y="1030" as="sourcePoint" />
            <mxPoint x="1820" y="1090" as="targetPoint" />
            <Array as="points">
              <mxPoint x="1810" y="1110" />
              <mxPoint x="1810" y="1152" />
              <mxPoint x="1790" y="1152" />
            </Array>
          </mxGeometry>
        </mxCell>
        <mxCell id="NbpeEciZDlfbmzeo30sF-143" value="injack open" style="edgeLabel;html=1;align=center;verticalAlign=middle;resizable=0;points=[];" vertex="1" connectable="0" parent="NbpeEciZDlfbmzeo30sF-142">
          <mxGeometry x="-0.0767" y="-2" relative="1" as="geometry">
            <mxPoint as="offset" />
          </mxGeometry>
        </mxCell>
        <mxCell id="NbpeEciZDlfbmzeo30sF-144" value="sync injack status" style="endArrow=classic;html=1;rounded=0;exitX=0.963;exitY=0.841;exitDx=0;exitDy=0;exitPerimeter=0;" edge="1" parent="1" source="NbpeEciZDlfbmzeo30sF-125">
          <mxGeometry width="50" height="50" relative="1" as="geometry">
            <mxPoint x="1780" y="1100" as="sourcePoint" />
            <mxPoint x="2240" y="1190" as="targetPoint" />
          </mxGeometry>
        </mxCell>
        <mxCell id="NbpeEciZDlfbmzeo30sF-145" value="success" style="endArrow=classic;html=1;rounded=0;entryX=0.963;entryY=0.956;entryDx=0;entryDy=0;entryPerimeter=0;" edge="1" parent="1" target="NbpeEciZDlfbmzeo30sF-125">
          <mxGeometry width="50" height="50" relative="1" as="geometry">
            <mxPoint x="2240" y="1210" as="sourcePoint" />
            <mxPoint x="1750" y="1220" as="targetPoint" />
          </mxGeometry>
        </mxCell>
        <mxCell id="NbpeEciZDlfbmzeo30sF-146" value="pending health check ready" style="endArrow=none;dashed=1;html=1;dashPattern=1 3;strokeWidth=2;rounded=0;" edge="1" parent="1">
          <mxGeometry width="50" height="50" relative="1" as="geometry">
            <mxPoint x="1680" y="960" as="sourcePoint" />
            <mxPoint x="2320" y="960" as="targetPoint" />
          </mxGeometry>
        </mxCell>
        <mxCell id="NbpeEciZDlfbmzeo30sF-147" value="" style="rounded=0;whiteSpace=wrap;html=1;sketch=0;shadow=0;fillColor=#B3B3B3;gradientColor=none;textOpacity=0;opacity=40;" vertex="1" parent="1">
          <mxGeometry x="1654" y="970" width="670" height="60" as="geometry" />
        </mxCell>
        <mxCell id="NbpeEciZDlfbmzeo30sF-148" value="sync injack failed" style="endArrow=classic;html=1;rounded=0;exitX=1.025;exitY=0.606;exitDx=0;exitDy=0;exitPerimeter=0;" edge="1" parent="1" source="NbpeEciZDlfbmzeo30sF-125">
          <mxGeometry width="50" height="50" relative="1" as="geometry">
            <mxPoint x="1753.2599999999998" y="1178.91" as="sourcePoint" />
            <mxPoint x="2240" y="1070" as="targetPoint" />
          </mxGeometry>
        </mxCell>
        <mxCell id="NbpeEciZDlfbmzeo30sF-149" value="if health check failed" style="endArrow=none;dashed=1;html=1;dashPattern=1 3;strokeWidth=2;rounded=0;" edge="1" parent="1">
          <mxGeometry width="50" height="50" relative="1" as="geometry">
            <mxPoint x="1680" y="1040" as="sourcePoint" />
            <mxPoint x="2320" y="1040" as="targetPoint" />
          </mxGeometry>
        </mxCell>
        <mxCell id="NbpeEciZDlfbmzeo30sF-150" value="" style="rounded=0;whiteSpace=wrap;html=1;sketch=0;shadow=0;fillColor=#B3B3B3;gradientColor=none;textOpacity=0;opacity=20;" vertex="1" parent="1">
          <mxGeometry x="1654" y="1050" width="666" height="50" as="geometry" />
        </mxCell>
        <mxCell id="NbpeEciZDlfbmzeo30sF-151" value="start envoy" style="endArrow=classic;html=1;rounded=0;entryX=1;entryY=0.301;entryDx=0;entryDy=0;entryPerimeter=0;" edge="1" parent="1" target="NbpeEciZDlfbmzeo30sF-125">
          <mxGeometry width="50" height="50" relative="1" as="geometry">
            <mxPoint x="1750" y="850" as="sourcePoint" />
            <mxPoint x="2090" y="910" as="targetPoint" />
            <Array as="points">
              <mxPoint x="1810" y="850" />
              <mxPoint x="1810" y="870" />
              <mxPoint x="1810" y="894" />
            </Array>
          </mxGeometry>
        </mxCell>
      </root>
    </mxGraphModel>
  </diagram>
</mxfile>
